<svg id="e9K4VqRaZuW1" xmlns="http://www.w3.org/2000/svg" xmlns:xlink="http://www.w3.org/1999/xlink" viewBox="0 0 280.49 272.68" shape-rendering="geometricPrecision" text-rendering="geometricPrecision" width="280.49" height="272.68"><style><![CDATA[#e9K4VqRaZuW1{pointer-events: all;cursor: pointer}#e9K4VqRaZuW1:hover #e9K4VqRaZuW2_to {animation: e9K4VqRaZuW2_to__to 1000ms linear 1 normal forwards}@keyframes e9K4VqRaZuW2_to__to { 0% {transform: translate(183.908669px,180.211787px)} 20% {transform: translate(183.908669px,180.211787px);animation-timing-function: cubic-bezier(0.455,0.03,0.515,0.955)} 70% {transform: translate(169.19838px,169.946204px)} 100% {transform: translate(169.19838px,169.946204px)}} #e9K4VqRaZuW1:hover #e9K4VqRaZuW3_to {animation: e9K4VqRaZuW3_to__to 1000ms linear 1 normal forwards}@keyframes e9K4VqRaZuW3_to__to { 0% {transform: translate(96.604992px,180.228624px)} 20% {transform: translate(96.604992px,180.228624px);animation-timing-function: cubic-bezier(0.455,0.03,0.515,0.955)} 70% {transform: translate(111.309774px,169.957368px)} 100% {transform: translate(111.309774px,169.957368px)}} #e9K4VqRaZuW1:hover #e9K4VqRaZuW4_to {animation: e9K4VqRaZuW4_to__to 1000ms linear 1 normal forwards}@keyframes e9K4VqRaZuW4_to__to { 0% {transform: translate(140.224865px,97.258621px)} 20% {transform: translate(140.224865px,97.258621px);animation-timing-function: cubic-bezier(0.455,0.03,0.515,0.955)} 70% {transform: translate(140.232882px,114.942299px)} 100% {transform: translate(140.232882px,114.942299px)}} #e9K4VqRaZuW1:hover #e9K4VqRaZuW5 {animation: e9K4VqRaZuW5_f_p 1000ms linear 1 normal forwards}@keyframes e9K4VqRaZuW5_f_p { 0% {fill: rgb(111,63,245)} 20% {fill: rgb(111,63,245)} 70% {fill: rgb(255,204,0)} 100% {fill: rgb(255,204,0)}}]]></style><g id="e9K4VqRaZuW2_to" transform="translate(183.908669,180.211787)"><path id="e9K4VqRaZuW2" d="M180.85,161.73L161.53,195.2C160.902605,196.290782,160.903301,197.633069,161.531827,198.7232C162.160352,199.813331,163.321661,200.486456,164.58,200.49L203.23,200.49C204.490959,200.492647,205.65701,199.820598,206.286844,198.728199C206.916677,197.6358,206.914066,196.289947,206.28,195.2L187,161.73C186.374301,160.62014,185.199083,159.933573,183.925,159.933573C182.650917,159.933573,181.475699,160.62014,180.85,161.73Z" transform="translate(-183.908668,-180.211787)" fill="rgb(255,204,0)" stroke="none" stroke-width="1"/></g><g id="e9K4VqRaZuW3_to" transform="translate(96.604992,180.228624)"><path id="e9K4VqRaZuW3" d="M99.64,161.73L119,195.2C119.628278,196.292329,119.626625,197.636739,118.995663,198.727519C118.364701,199.8183,117.200125,200.490017,115.94,200.49L77.26,200.49C76.001661,200.486456,74.840352,199.813331,74.211827,198.7232C73.583301,197.633069,73.582605,196.290782,74.21,195.2L93.54,161.73C94.16837,160.639354,95.331288,159.967242,96.59,159.967242C97.848712,159.967242,99.01163,160.639354,99.64,161.73Z" transform="translate(-96.604992,-180.228623)" fill="rgb(255,204,0)" stroke="none" stroke-width="1"/></g><g id="e9K4VqRaZuW4_to" transform="translate(140.224865,97.258621)"><path id="e9K4VqRaZuW4" d="M137.2,78.76L117.87,112.23C117.246807,113.313076,117.242647,114.644916,117.859064,115.731864C118.47548,116.818811,119.620609,117.498881,120.87,117.52L159.52,117.52C160.780125,117.520017,161.944701,116.8483,162.575663,115.757519C163.206625,114.666739,163.208278,113.322329,162.58,112.23L143.3,78.76C142.67163,77.669354,141.508712,76.997242,140.25,76.997242C138.991288,76.997242,137.82837,77.669354,137.2,78.76Z" transform="translate(-140.224865,-97.258621)" fill="rgb(255,204,0)" stroke="none" stroke-width="1"/></g><path id="e9K4VqRaZuW5" d="M219.23,226.34L61.23,226.34C53.512375,226.341376,46.380371,222.224983,42.520963,215.541668C38.661554,208.858353,38.661187,200.623659,42.52,193.94L121.52,57.14L121.52,57.14C125.378769,50.458058,132.508884,46.341989,140.225,46.341989C147.941116,46.341989,155.071231,50.458058,158.93,57.14L237.93,193.94C241.78792,200.622112,241.788506,208.854677,237.931538,215.537338C234.074569,222.219999,226.945838,226.337804,219.23,226.34ZM134,64.34L55,201.14C53.713431,203.368402,53.71387,206.11401,55.001154,208.342C56.288437,210.56999,58.666863,211.94165,61.24,211.94L219.24,211.94C221.811351,211.938078,224.186504,210.565007,225.471347,208.33767C226.75619,206.110334,226.755676,203.366855,225.47,201.14L146.47,64.34C145.183744,62.112686,142.807039,60.740663,140.235,60.740663C137.662961,60.740663,135.286256,62.112686,134,64.34Z" fill="rgb(111,63,245)" stroke="none" stroke-width="1"/></svg>