<svg id="eCsxAhD3Nvp1" xmlns="http://www.w3.org/2000/svg" xmlns:xlink="http://www.w3.org/1999/xlink" viewBox="0 0 280.49 272.68" shape-rendering="geometricPrecision" text-rendering="geometricPrecision" width="280.49" height="272.68"><style><![CDATA[#eCsxAhD3Nvp1{pointer-events: all;cursor: pointer}#eCsxAhD3Nvp1:hover #eCsxAhD3Nvp2_to {animation: eCsxAhD3Nvp2_to__to 1000ms linear 1 normal forwards}@keyframes eCsxAhD3Nvp2_to__to { 0% {transform: translate(100.19001px,136.371456px)} 20% {transform: translate(100.19001px,136.371456px);animation-timing-function: cubic-bezier(0.42,0,0.58,1)} 70% {transform: translate(140.248746px,79.938986px)} 100% {transform: translate(140.248746px,79.938986px)}} #eCsxAhD3Nvp1:hover #eCsxAhD3Nvp2 {animation: eCsxAhD3Nvp2_f_p 1000ms linear 1 normal forwards}@keyframes eCsxAhD3Nvp2_f_p { 0% {fill: rgb(111,63,245)} 20% {fill: rgb(111,63,245)} 70% {fill: rgb(255,204,0)} 100% {fill: rgb(255,204,0)}} #eCsxAhD3Nvp1:hover #eCsxAhD3Nvp3_to {animation: eCsxAhD3Nvp3_to__to 1000ms linear 1 normal forwards}@keyframes eCsxAhD3Nvp3_to__to { 0% {transform: translate(140.245007px,193.449997px)} 20% {transform: translate(140.245007px,193.449997px);animation-timing-function: cubic-bezier(0.42,0,0.58,1)} 70% {transform: translate(100.190007px,136.844095px)} 100% {transform: translate(100.190007px,136.844095px)}} #eCsxAhD3Nvp1:hover #eCsxAhD3Nvp4_to {animation: eCsxAhD3Nvp4_to__to 1000ms linear 1 normal forwards}@keyframes eCsxAhD3Nvp4_to__to { 0% {transform: translate(180.304993px,136.371311px)} 20% {transform: translate(180.304993px,136.371311px);animation-timing-function: cubic-bezier(0.42,0,0.58,1)} 70% {transform: translate(140.244992px,193.449987px)} 100% {transform: translate(140.244992px,193.449987px)}} #eCsxAhD3Nvp1:hover #eCsxAhD3Nvp4 {animation: eCsxAhD3Nvp4_f_p 1000ms linear 1 normal forwards}@keyframes eCsxAhD3Nvp4_f_p { 0% {fill: rgb(111,63,245)} 20% {fill: rgb(111,63,245)} 70% {fill: rgb(255,204,0)} 100% {fill: rgb(255,204,0)}} #eCsxAhD3Nvp1:hover #eCsxAhD3Nvp5_to {animation: eCsxAhD3Nvp5_to__to 1000ms linear 1 normal forwards}@keyframes eCsxAhD3Nvp5_to__to { 0% {transform: translate(140.245007px,79.23px)} 20% {transform: translate(140.245007px,79.23px);animation-timing-function: cubic-bezier(0.42,0,0.58,1)} 70% {transform: translate(180.305009px,136.34px)} 100% {transform: translate(180.305009px,136.34px)}}]]></style><g id="eCsxAhD3Nvp2_to" transform="translate(100.19001,136.371456)"><path id="eCsxAhD3Nvp2" d="M100.19,169.7C97.474682,169.695946,94.9309,168.371837,93.37,166.15L75.82,141.15C73.809413,138.280472,73.809413,134.459528,75.82,131.59L93.37,106.59C94.929253,104.366658,97.474393,103.042938,100.19,103.042938C102.905607,103.042938,105.450747,104.366658,107.01,106.59L124.56,131.59C126.570587,134.459528,126.570587,138.280472,124.56,141.15L124.56,141.15L107.01,166.15C105.4491,168.371837,102.905318,169.695946,100.19,169.7ZM87,136.34L100.2,155.16L113.4,136.34L100.2,117.52ZM119.71,137.71L119.71,137.71ZM114.84,134.29L114.84,134.29Z" transform="translate(-100.19001,-136.371456)" fill="rgb(111,63,245)" stroke="none" stroke-width="1"/></g><g id="eCsxAhD3Nvp3_to" transform="translate(140.245007,193.449997)"><path id="eCsxAhD3Nvp3" d="M163.65,195.09L142.58,225.09C142.046705,225.852038,141.175111,226.305902,140.245,226.305902C139.314889,226.305902,138.443295,225.852038,137.91,225.09L116.84,195.09C116.150767,194.105289,116.150767,192.794711,116.84,191.81L137.91,161.81C138.443295,161.047962,139.314889,160.594098,140.245,160.594098C141.175111,160.594098,142.046705,161.047962,142.58,161.81L163.65,191.81C164.339233,192.794711,164.339233,194.105289,163.65,195.09Z" transform="translate(-140.245007,-193.449997)" fill="rgb(255,204,0)" stroke="none" stroke-width="1"/></g><g id="eCsxAhD3Nvp4_to" transform="translate(180.304993,136.371311)"><path id="eCsxAhD3Nvp4" d="M180.31,169.7C177.593437,169.701027,175.047452,168.375771,173.49,166.15L155.93,141.15C153.931126,138.276788,153.931126,134.463212,155.93,131.59L173.49,106.59C175.047024,104.366681,177.590691,103.042649,180.305,103.042649C183.019309,103.042649,185.562976,104.366681,187.12,106.59L204.68,131.59C206.678874,134.463212,206.678874,138.276788,204.68,141.15L204.68,141.15L187.12,166.15C185.561135,168.368955,183.021784,169.692699,180.31,169.7ZM167.11,136.34L180.31,155.16L193.5,136.34L180.31,117.52ZM199.81,137.71L199.81,137.71ZM194.94,134.29L194.94,134.29Z" transform="translate(-180.304993,-136.371311)" fill="rgb(111,63,245)" stroke="none" stroke-width="1"/></g><g id="eCsxAhD3Nvp5_to" transform="translate(140.245007,79.23)"><path id="eCsxAhD3Nvp5" d="M163.65,80.87L142.58,110.87C142.046705,111.632038,141.175111,112.085902,140.245,112.085902C139.314889,112.085902,138.443295,111.632038,137.91,110.87L116.84,80.87C116.150767,79.885289,116.150767,78.574711,116.84,77.59L137.91,47.59C138.443295,46.827962,139.314889,46.374098,140.245,46.374098C141.175111,46.374098,142.046705,46.827962,142.58,47.59L163.65,77.59C164.339233,78.574711,164.339233,79.885289,163.65,80.87Z" transform="translate(-140.245007,-79.23)" fill="rgb(255,204,0)" stroke="none" stroke-width="1"/></g></svg>