<svg id="e7IEZdPOqBJ1" xmlns="http://www.w3.org/2000/svg" xmlns:xlink="http://www.w3.org/1999/xlink" viewBox="0 0 280.49 272.68" shape-rendering="geometricPrecision" text-rendering="geometricPrecision" width="280.49" height="272.68"><style><![CDATA[#e7IEZdPOqBJ1{pointer-events: all;cursor: pointer}#e7IEZdPOqBJ1:hover #e7IEZdPOqBJ2 {animation: e7IEZdPOqBJ2_f_p 1000ms linear 1 normal forwards}@keyframes e7IEZdPOqBJ2_f_p { 0% {fill: rgb(111,63,245)} 20% {fill: rgb(111,63,245)} 70% {fill: rgb(255,204,0)} 100% {fill: rgb(255,204,0)}} #e7IEZdPOqBJ1:hover #e7IEZdPOqBJ3_to {animation: e7IEZdPOqBJ3_to__to 1000ms linear 1 normal forwards}@keyframes e7IEZdPOqBJ3_to__to { 0% {transform: translate(206.531771px,70.680609px)} 20% {transform: translate(206.531771px,70.680609px);animation-timing-function: cubic-bezier(0.42,0,0.58,1)} 70% {transform: translate(124.059798px,151.889261px)} 100% {transform: translate(124.059798px,151.889261px)}} #e7IEZdPOqBJ1:hover #e7IEZdPOqBJ4_ts {animation: e7IEZdPOqBJ4_ts__ts 1000ms linear 1 normal forwards}@keyframes e7IEZdPOqBJ4_ts__ts { 0% {transform: translate(124.066589px,151.88585px) rotate(-8.94deg) scale(1,1)} 20% {transform: translate(124.066589px,151.88585px) rotate(-8.94deg) scale(1,1);animation-timing-function: cubic-bezier(0.95,0.05,0.795,0.035)} 70% {transform: translate(124.066589px,151.88585px) rotate(-8.94deg) scale(1.5,1.5)} 100% {transform: translate(124.066589px,151.88585px) rotate(-8.94deg) scale(1.5,1.5)}}]]></style><path id="e7IEZdPOqBJ2" d="M124.06,226.34C90.363012,226.339185,60.867865,203.70521,52.147812,171.156052C43.427759,138.606894,57.65721,104.25892,86.840668,87.412176C116.024126,70.565432,152.884487,75.420776,176.71,99.25L176.71,99.25C198.000378,120.543694,204.367765,152.565493,192.843178,180.384292C181.318591,208.20309,154.171487,226.340728,124.06,226.34ZM124.06,91.48C95.240534,91.47874,70.433314,111.835144,64.808943,140.10046C59.184572,168.365776,74.309447,196.668063,100.934105,207.699347C127.558763,218.730631,158.268189,209.418679,174.282347,185.45812C190.296506,161.497562,187.155425,129.561455,166.78,109.18L166.78,109.18C155.476814,97.809234,140.092914,91.435287,124.06,91.48Z" fill="rgb(111,63,245)" stroke="none" stroke-width="1"/><g id="e7IEZdPOqBJ3_to" transform="translate(206.531771,70.680609)"><circle id="e7IEZdPOqBJ3" r="24.32" transform="rotate(-17.530001) translate(0,0)" fill="rgb(255,204,0)" stroke="none" stroke-width="1"/></g><g id="e7IEZdPOqBJ4_ts" transform="translate(124.066589,151.88585) rotate(-8.94) scale(1,1)"><circle id="e7IEZdPOqBJ4" r="24.32" transform="translate(0,0)" fill="rgb(255,204,0)" stroke="none" stroke-width="1"/></g></svg>