<svg id="eLMim38vRV41" xmlns="http://www.w3.org/2000/svg" xmlns:xlink="http://www.w3.org/1999/xlink" viewBox="0 0 280.49 272.68" shape-rendering="geometricPrecision" text-rendering="geometricPrecision" width="280.49" height="272.68"><style><![CDATA[#eLMim38vRV41{pointer-events: all;cursor: pointer}#eLMim38vRV41:hover #eLMim38vRV42 {animation: eLMim38vRV42_f_p 1000ms linear 1 normal forwards}@keyframes eLMim38vRV42_f_p { 0% {fill: rgb(111,63,245)} 20% {fill: rgb(111,63,245);animation-timing-function: cubic-bezier(0.77,0,0.175,1)} 70% {fill: rgb(255,204,0)} 100% {fill: rgb(255,204,0)}} #eLMim38vRV41:hover #eLMim38vRV43_to {animation: eLMim38vRV43_to__to 1000ms linear 1 normal forwards}@keyframes eLMim38vRV43_to__to { 0% {transform: translate(170.037308px,106.56633px)} 20% {transform: translate(170.037308px,106.56633px);animation-timing-function: cubic-bezier(0.77,0,0.175,1)} 70% {transform: translate(213.58648px,63.639295px)} 100% {transform: translate(213.58648px,63.639295px)}} #eLMim38vRV41:hover #eLMim38vRV43 {animation: eLMim38vRV43_f_o 1000ms linear 1 normal forwards}@keyframes eLMim38vRV43_f_o { 0% {fill-opacity: 1} 40% {fill-opacity: 1;animation-timing-function: cubic-bezier(0.77,0,0.175,1)} 70% {fill-opacity: 0} 100% {fill-opacity: 0}} #eLMim38vRV41:hover #eLMim38vRV44_to {animation: eLMim38vRV44_to__to 1000ms linear 1 normal forwards}@keyframes eLMim38vRV44_to__to { 0% {transform: translate(205.016899px,149.389572px)} 20% {transform: translate(205.016899px,149.389572px);animation-timing-function: cubic-bezier(0.77,0,0.175,1)} 70% {transform: translate(251.676726px,117.660894px)} 100% {transform: translate(251.676726px,117.660894px)}} #eLMim38vRV41:hover #eLMim38vRV44 {animation: eLMim38vRV44_f_o 1000ms linear 1 normal forwards}@keyframes eLMim38vRV44_f_o { 0% {fill-opacity: 1} 40% {fill-opacity: 1;animation-timing-function: cubic-bezier(0.77,0,0.175,1)} 70% {fill-opacity: 0} 100% {fill-opacity: 0}} #eLMim38vRV41:hover #eLMim38vRV45_to {animation: eLMim38vRV45_to__to 1000ms linear 1 normal forwards}@keyframes eLMim38vRV45_to__to { 0% {transform: translate(127.196472px,71.541px)} 20% {transform: translate(127.196472px,71.541px);animation-timing-function: cubic-bezier(0.77,0,0.175,1)} 70% {transform: translate(155.192371px,31.102488px)} 100% {transform: translate(155.192371px,31.102488px)}} #eLMim38vRV41:hover #eLMim38vRV45 {animation: eLMim38vRV45_f_o 1000ms linear 1 normal forwards}@keyframes eLMim38vRV45_f_o { 0% {fill-opacity: 1} 40% {fill-opacity: 1;animation-timing-function: cubic-bezier(0.77,0,0.175,1)} 70% {fill-opacity: 0} 100% {fill-opacity: 0}} #eLMim38vRV41:hover #eLMim38vRV46 {animation: eLMim38vRV46_f_o 1000ms linear 1 normal forwards}@keyframes eLMim38vRV46_f_o { 0% {fill-opacity: 0} 40% {fill-opacity: 0} 70% {fill-opacity: 1} 100% {fill-opacity: 1}} #eLMim38vRV41:hover #eLMim38vRV47 {animation: eLMim38vRV47_f_o 1000ms linear 1 normal forwards}@keyframes eLMim38vRV47_f_o { 0% {fill-opacity: 0} 40% {fill-opacity: 0} 70% {fill-opacity: 1} 100% {fill-opacity: 1}} #eLMim38vRV41:hover #eLMim38vRV48 {animation: eLMim38vRV48_f_o 1000ms linear 1 normal forwards}@keyframes eLMim38vRV48_f_o { 0% {fill-opacity: 0} 40% {fill-opacity: 0} 70% {fill-opacity: 1} 100% {fill-opacity: 1}}]]></style><path id="eLMim38vRV42" d="M69.86,226.34C63.550481,226.320713,57.633596,223.274306,53.952584,218.149799C50.271573,213.025293,49.273765,206.445437,51.27,200.46L80.92,111.66C83.076417,105.205109,88.42079,100.326643,95.045072,98.766311C101.669354,97.205979,108.629273,99.186201,113.44,104L172.6,163.16C177.407584,167.9759,179.381311,174.936334,177.817289,181.558991C176.253267,188.181648,171.374155,193.523699,164.92,195.68L76.13,225.32L76.13,225.32C74.107401,225.990698,71.990896,226.33501,69.86,226.34ZM73.78,218.29L73.78,218.29ZM99.59,113C99.203028,113.000491,98.817316,113.044093,98.44,113.13C96.807215,113.524355,95.501249,114.7468,95,116.35L65.36,205.15C64.773586,206.889262,65.223663,208.810604,66.52153,210.10847C67.819396,211.406337,69.740738,211.856414,71.48,211.27L160.28,181.63C161.861573,181.092431,163.055201,179.778804,163.439269,178.153121C163.823336,176.527437,163.343784,174.818522,162.17,173.63L103,114.46C102.112957,113.524413,100.879246,112.996197,99.59,113Z" fill="rgb(111,63,245)" stroke="none" stroke-width="1"/><g id="eLMim38vRV43_to" transform="translate(170.037308,106.56633)"><path id="eLMim38vRV43" d="M186.14,84.12L149.35,104.66C148.07993,105.374198,147.218075,106.64244,147.02164,108.086243C146.825204,109.530047,147.316903,110.982446,148.35,112.01L164.6,128.26C165.629409,129.289116,167.080565,129.778105,168.522874,129.581872C169.965183,129.38564,171.232951,128.526729,171.95,127.26L192.48,90.47C193.522768,88.650017,193.217981,86.357218,191.735961,84.87286C190.25394,83.388501,187.961624,83.080102,186.14,84.12Z" transform="translate(-170.037308,-106.56633)" fill="rgb(255,204,0)" stroke="none" stroke-width="1"/></g><g id="eLMim38vRV44_to" transform="translate(205.016899,149.389572)"><path id="eLMim38vRV44" d="M224.56,130.14L183.45,139.36C182.028481,139.682104,180.839553,140.650774,180.236857,141.977885C179.63416,143.304996,179.687126,144.837661,180.38,146.12L191.38,166.32C192.077639,167.599422,193.333626,168.478822,194.774508,168.696722C196.21539,168.914621,197.675244,168.445927,198.72,167.43L228.82,138C230.301212,136.54713,230.640673,134.288742,229.65203,132.464625C228.663386,130.640508,226.585879,129.69208,224.56,130.14Z" transform="translate(-205.016899,-149.389572)" fill="rgb(255,204,0)" stroke="none" stroke-width="1"/></g><g id="eLMim38vRV45_to" transform="translate(127.196472,71.541)"><path id="eLMim38vRV45" d="M146.45,52L137.23,93.11C136.907896,94.531519,135.939226,95.720447,134.612115,96.323143C133.285004,96.92584,131.752339,96.872874,130.47,96.18L110.27,85.23C108.98727,84.535274,108.104908,83.278855,107.886782,81.836474C107.668657,80.394094,108.140053,78.932951,109.16,77.89L138.58,47.73C140.037254,46.25217,142.296209,45.916202,144.120465,46.905982C145.94472,47.895762,146.894516,49.972692,146.45,52Z" transform="translate(-127.196472,-71.541)" fill="rgb(255,204,0)" stroke="none" stroke-width="1"/></g><path id="eLMim38vRV46" d="M146.45,52L137.23,93.11C136.907896,94.531519,135.939226,95.720447,134.612115,96.323143C133.285004,96.92584,131.752339,96.872874,130.47,96.18L110.27,85.23C108.98727,84.535274,108.104908,83.278855,107.886782,81.836474C107.668657,80.394094,108.140053,78.932951,109.16,77.89L138.58,47.73C140.037254,46.25217,142.296209,45.916202,144.120465,46.905982C145.94472,47.895762,146.894516,49.972692,146.45,52Z" fill="rgb(255,204,0)" fill-opacity="0" stroke="none" stroke-width="1"/><path id="eLMim38vRV47" d="M224.56,130.14L183.45,139.36C182.028481,139.682104,180.839553,140.650774,180.236857,141.977885C179.63416,143.304996,179.687126,144.837661,180.38,146.12L191.38,166.32C192.077639,167.599422,193.333626,168.478822,194.774508,168.696722C196.21539,168.914621,197.675244,168.445927,198.72,167.43L228.82,138C230.301212,136.54713,230.640673,134.288742,229.65203,132.464625C228.663386,130.640508,226.585879,129.69208,224.56,130.14Z" fill="rgb(255,204,0)" fill-opacity="0" stroke="none" stroke-width="1"/><path id="eLMim38vRV48" d="M186.14,84.12L149.35,104.66C148.07993,105.374198,147.218075,106.64244,147.02164,108.086243C146.825204,109.530047,147.316903,110.982446,148.35,112.01L164.6,128.26C165.629409,129.289116,167.080565,129.778105,168.522874,129.581872C169.965183,129.38564,171.232951,128.526729,171.95,127.26L192.48,90.47C193.522768,88.650017,193.217981,86.357218,191.735961,84.87286C190.25394,83.388501,187.961624,83.080102,186.14,84.12Z" fill="rgb(255,204,0)" fill-opacity="0" stroke="none" stroke-width="1"/></svg>