<svg id="ePx9EskjhT31" xmlns="http://www.w3.org/2000/svg" xmlns:xlink="http://www.w3.org/1999/xlink" viewBox="0 0 280.49 272.68" shape-rendering="geometricPrecision" text-rendering="geometricPrecision" width="280.49" height="272.68"><style><![CDATA[#ePx9EskjhT31{pointer-events: all;cursor: pointer}#ePx9EskjhT31:hover #ePx9EskjhT32 {animation: ePx9EskjhT32_f_p 1000ms linear 1 normal forwards}@keyframes ePx9EskjhT32_f_p { 0% {fill: rgb(111,63,245)} 20% {fill: rgb(111,63,245)} 70% {fill: rgb(255,204,0)} 100% {fill: rgb(255,204,0)}} #ePx9EskjhT31:hover #ePx9EskjhT33 {animation: ePx9EskjhT33_f_p 1000ms linear 1 normal forwards}@keyframes ePx9EskjhT33_f_p { 0% {fill: rgb(111,63,245)} 20% {fill: rgb(111,63,245)} 70% {fill: rgb(255,204,0)} 100% {fill: rgb(255,204,0)}} #ePx9EskjhT31:hover #ePx9EskjhT35_to {animation: ePx9EskjhT35_to__to 1000ms linear 1 normal forwards}@keyframes ePx9EskjhT35_to__to { 0% {transform: translate(141.828969px,117.966031px)} 20% {transform: translate(141.828969px,117.966031px);animation-timing-function: cubic-bezier(0.47,0,0.745,0.715)} 70% {transform: translate(141.222044px,89.832481px)} 100% {transform: translate(141.222044px,89.832481px)}} #ePx9EskjhT31:hover #ePx9EskjhT35_ts {animation: ePx9EskjhT35_ts__ts 1000ms linear 1 normal forwards}@keyframes ePx9EskjhT35_ts__ts { 0% {transform: scale(1,1)} 20% {transform: scale(1,1);animation-timing-function: cubic-bezier(0.47,0,0.745,0.715)} 70% {transform: scale(0.616833,0.616833)} 100% {transform: scale(0.616833,0.616833)}}]]></style><path id="ePx9EskjhT32" d="M212.29,226.34C199.86,226.34,193.39,218.51,188.66,212.79C184.17,207.36,181.58,204.52,176.25,204.52C170.92,204.52,168.33,207.36,163.84,212.79C159.12,218.51,152.66,226.34,140.22,226.34C127.78,226.34,121.32,218.51,116.6,212.79C112.11,207.36,109.52,204.52,104.18,204.52C98.84,204.52,96.27,207.36,91.78,212.79C87.06,218.51,80.6,226.34,68.16,226.34C55.72,226.34,49.27,218.51,44.54,212.79C40.06,207.35,37.47,204.52,32.15,204.52C29.486562,204.618764,26.982067,203.254163,25.621018,200.962613C24.259969,198.671064,24.259969,195.818936,25.621018,193.527387C26.982067,191.235837,29.486562,189.871236,32.15,189.97C44.58,189.97,51.04,197.81,55.76,203.53C60.25,208.96,62.83,211.79,68.16,211.79C73.49,211.79,76.08,208.96,80.57,203.53C85.29,197.81,91.75,190,104.18,190C116.61,190,123.09,197.84,127.81,203.56C132.3,208.99,134.89,211.82,140.22,211.82C145.55,211.82,148.14,208.99,152.63,203.56C157.35,197.84,163.82,190,176.25,190C188.68,190,195.15,197.84,199.88,203.56C204.37,208.99,206.96,211.82,212.29,211.82C217.62,211.82,220.23,208.99,224.71,203.56C229.44,197.84,235.91,190,248.35,190C252.262968,190.145099,255.360232,193.359342,255.360232,197.275C255.360232,201.190658,252.262968,204.404901,248.35,204.55C243.01,204.55,240.42,207.39,235.93,212.82C231.21,218.51,224.74,226.34,212.29,226.34Z" fill="rgb(111,63,245)" stroke="none" stroke-width="1"/><path id="ePx9EskjhT33" d="M212.29,189.53C199.86,189.53,193.39,181.7,188.66,175.98C184.17,170.54,181.58,167.71,176.25,167.71C170.92,167.71,168.33,170.54,163.84,175.97C159.12,181.69,152.66,189.53,140.22,189.53C127.78,189.53,121.32,181.7,116.6,176C112.11,170.56,109.52,167.73,104.18,167.73C98.84,167.73,96.27,170.56,91.78,175.99C87.06,181.71,80.6,189.55,68.16,189.55C55.72,189.55,49.27,181.69,44.54,176C40.06,170.57,37.47,167.74,32.15,167.74C29.486562,167.838764,26.982067,166.474163,25.621018,164.182613C24.259969,161.891064,24.259969,159.038936,25.621018,156.747387C26.982067,154.455837,29.486562,153.091236,32.15,153.19C44.58,153.19,51.04,161.02,55.76,166.74C60.25,172.18,62.83,175.01,68.16,175.01C73.49,175.01,76.08,172.18,80.57,166.74C85.29,161.02,91.75,153.19,104.18,153.19C116.61,153.19,123.09,161.02,127.81,166.74C132.3,172.18,134.89,175.01,140.22,175.01C145.55,175.01,148.14,172.18,152.63,166.74C157.35,161.02,163.82,153.19,176.25,153.19C188.68,153.19,195.15,161.02,199.88,166.74C204.37,172.18,206.96,175.01,212.29,175.01C217.62,175.01,220.23,172.18,224.71,166.74C229.44,161.02,235.91,153.19,248.35,153.19C252.262968,153.335099,255.360232,156.549342,255.360232,160.465C255.360232,164.380658,252.262968,167.594901,248.35,167.74C243.01,167.74,240.42,170.57,235.93,176.01C231.21,181.7,224.74,189.53,212.29,189.53Z" fill="rgb(111,63,245)" stroke="none" stroke-width="1"/><g id="ePx9EskjhT34" mask="url(#ePx9EskjhT36)"><g id="ePx9EskjhT35_to" transform="translate(141.828969,117.966031)"><g id="ePx9EskjhT35_ts" transform="scale(1,1)"><ellipse id="ePx9EskjhT35" rx="70" ry="70" transform="translate(-1.583969,-1.583969)" fill="rgb(255,204,0)" stroke="none" stroke-width="0"/></g></g><mask id="ePx9EskjhT36" mask-type="alpha"><path id="ePx9EskjhT37" d="M260.763806,65.962415C248.333806,65.962415,192.853671,48.233301,145.603671,37.355757C140.883671,43.075757,52.419087,45.424302,39.979087,45.424302C27.539087,45.424302,62.83,175.01,68.16,175.01C73.49,175.01,76.08,172.18,80.57,166.74C85.29,161.02,91.75,153.19,104.18,153.19C116.61,153.19,123.09,161.02,127.81,166.74C132.3,172.18,134.89,175.01,140.22,175.01C145.55,175.01,148.14,172.18,152.63,166.74C157.35,161.02,163.82,153.19,176.25,153.19C188.68,153.19,195.15,161.02,199.88,166.74C204.37,172.18,206.96,175.01,212.29,175.01C217.62,175.01,273.213806,65.962415,260.763806,65.962415Z" transform="matrix(1 0 0 1 0 -30)" fill="rgb(111,63,245)" stroke="none" stroke-width="1"/></mask></g></svg>