<svg width="75" height="80" viewBox="0 0 75 80" fill="none" xmlns="http://www.w3.org/2000/svg">
<path d="M40.9915 65.8252C47.5843 64.882 53.5598 61.4132 57.6696 56.1435L58.0595 55.6466L68.5134 62.0524C68.847 62.2566 69.1062 62.5637 69.2524 62.928C69.3985 63.2923 69.4238 63.6943 69.3245 64.0742C69.2251 64.4541 69.0065 64.7916 68.701 65.0364C68.3956 65.2813 68.0197 65.4204 67.6294 65.4331L53.159 65.9301C52.8616 65.9401 52.5713 66.0235 52.3135 66.173C52.0558 66.3224 51.8386 66.5334 51.6811 66.7872L44.0175 79.143C43.8112 79.4748 43.5044 79.7311 43.1422 79.874C42.78 80.0169 42.3817 80.0389 42.0061 79.9367C41.6306 79.8345 41.2977 79.6135 41.0566 79.3063C40.8155 78.9992 40.679 78.6222 40.6673 78.2311L40.3772 65.921L40.9915 65.8252Z" fill="#6F3FF5"/>
<path d="M13.1955 30.315C11.9698 33.3954 11.342 36.6834 11.3459 40.0013C11.3417 43.3185 11.9696 46.6057 13.1955 49.6853L13.4222 50.2711L2.68044 56.1686C2.33806 56.3561 1.9447 56.4276 1.55873 56.3726C1.17275 56.3175 0.814698 56.1388 0.537644 55.863C0.26059 55.5872 0.079294 55.2289 0.0206425 54.8413C-0.0380091 54.4537 0.0291041 54.0574 0.212031 53.7111L7.01205 40.8584C7.15175 40.5946 7.22481 40.3002 7.22481 40.0013C7.22481 39.7024 7.15175 39.408 7.01205 39.1441L0.212031 26.2892C0.0291041 25.9429 -0.0380091 25.5466 0.0206425 25.159C0.079294 24.7714 0.26059 24.4131 0.537644 24.1373C0.814698 23.8615 1.17275 23.6828 1.55873 23.6277C1.9447 23.5727 2.33806 23.6442 2.68044 23.8317L13.4222 29.7314L13.1955 30.315Z" fill="#6F3FF5"/>
<path d="M6.07435 62.0524L16.526 55.6466L16.9158 56.1435C21.0262 61.4138 27.0026 64.8826 33.5963 65.8252L34.2105 65.9141L33.9181 78.2243C33.9064 78.6154 33.77 78.9924 33.5289 79.2995C33.2878 79.6066 32.9549 79.8276 32.5793 79.9298C32.2038 80.0321 31.8055 80.0101 31.4433 79.8672C31.0811 79.7242 30.7742 79.4679 30.568 79.1361L22.9044 66.7804C22.7469 66.5266 22.5297 66.3156 22.2719 66.1661C22.0142 66.0166 21.7239 65.9332 21.4265 65.9233L6.95609 65.4263C6.56792 65.4109 6.19492 65.2706 5.89201 65.026C5.5891 64.7814 5.37231 64.4454 5.27356 64.0676C5.17481 63.6897 5.19931 63.2899 5.34348 62.9271C5.48765 62.5644 5.74385 62.2577 6.07435 62.0524Z" fill="#6F3FF5"/>
<path d="M74.3588 26.2891L67.5588 39.1441C67.4191 39.408 67.346 39.7023 67.346 40.0013C67.346 40.3002 67.4191 40.5946 67.5588 40.8584L74.3588 53.7111C74.5417 54.0574 74.6089 54.4537 74.5502 54.8413C74.4916 55.2289 74.3103 55.5872 74.0332 55.863C73.7562 56.1388 73.3981 56.3175 73.0121 56.3726C72.6261 56.4276 72.2328 56.3561 71.8904 56.1686L61.1532 50.2597L61.3799 49.6739C62.6051 46.5942 63.2322 43.3069 63.2272 39.9899C63.2318 36.6721 62.6048 33.3842 61.3799 30.3036L61.1532 29.72L71.8949 23.8203C72.2383 23.6316 72.6332 23.5598 73.0205 23.6154C73.4079 23.671 73.7669 23.8511 74.0441 24.1289C74.3213 24.4066 74.5017 24.767 74.5584 25.1564C74.6151 25.5457 74.5451 25.9431 74.3588 26.2891Z" fill="#6F3FF5"/>
<path d="M68.513 17.9477L58.0591 24.3535L57.6693 23.8566C53.5552 18.5861 47.5759 15.1175 40.9798 14.1748L40.3678 14.0882L40.6579 1.77807C40.6696 1.38695 40.8061 1.00999 41.0472 0.702869C41.2882 0.395744 41.6212 0.174749 41.9967 0.0725269C42.3723 -0.0296955 42.7706 -0.00772095 43.1328 0.135202C43.4949 0.278124 43.8018 0.53441 44.0081 0.866211L51.6717 13.2242C51.8292 13.4781 52.0464 13.689 52.3041 13.8385C52.5618 13.988 52.8522 14.0714 53.1495 14.0814L67.6199 14.5761C68.0084 14.5899 68.3821 14.7288 68.6861 14.9724C68.99 15.2161 69.2081 15.5515 69.3081 15.9292C69.4082 16.3069 69.3849 16.707 69.2418 17.0704C69.0986 17.4338 68.8431 17.7414 68.513 17.9477Z" fill="#6F3FF5"/>
<path d="M33.5896 14.1748C26.9967 15.1197 21.0211 18.5881 16.9091 23.8566L16.5193 24.3535L6.07445 17.9477C5.74079 17.7435 5.48159 17.4364 5.33545 17.0721C5.1893 16.7078 5.16403 16.3058 5.26337 15.9259C5.36271 15.546 5.58135 15.2085 5.88677 14.9636C6.1922 14.7188 6.56808 14.5796 6.95846 14.5669L21.4289 14.0723C21.7262 14.0623 22.0166 13.9789 22.2743 13.8294C22.532 13.6799 22.7492 13.4689 22.9068 13.2151L30.5545 0.857058C30.7607 0.525255 31.0676 0.268963 31.4298 0.12604C31.792 -0.0168819 32.1903 -0.0388565 32.5658 0.063364C32.9414 0.165586 33.2743 0.386583 33.5154 0.693708C33.7565 1.00083 33.8929 1.3778 33.9046 1.76892L34.1948 14.0791L33.5896 14.1748Z" fill="#6F3FF5"/>
<path d="M29.2118 41.597C29.4952 41.4393 29.7315 41.2081 29.896 40.9275C30.0605 40.6468 30.1472 40.327 30.1472 40.0013C30.1472 39.6755 30.0605 39.3557 29.896 39.075C29.7315 38.7944 29.4952 38.5632 29.2118 38.4055L18.0371 32.2504C17.0569 34.7154 16.5552 37.3464 16.5592 40.0013C16.5567 42.6515 17.0583 45.2778 18.0371 47.7384L29.2118 41.597ZM53.5762 27.0984L42.6962 33.7596C42.4148 33.9364 42.0897 34.0304 41.7578 34.0308C41.5156 34.0309 41.2759 33.9822 41.0527 33.8876C40.8295 33.7929 40.6275 33.6543 40.4585 33.4799C40.2894 33.3054 40.1569 33.0987 40.0686 32.8719C39.9803 32.645 39.9381 32.4027 39.9445 32.1592L40.2482 19.3612C45.5146 20.1245 50.287 22.8966 53.5762 27.1029V27.0984ZM45.3663 41.597C45.0829 41.4393 44.8467 41.2081 44.6822 40.9275C44.5176 40.6468 44.4309 40.327 44.4309 40.0013C44.4309 39.6755 44.5176 39.3557 44.6822 39.075C44.8467 38.7944 45.0829 38.5632 45.3663 38.4055L56.541 32.2664C57.5205 34.7315 58.0214 37.3625 58.0166 40.0172C58.02 42.6673 57.5191 45.2936 56.541 47.7544L45.3663 41.597ZM42.7075 46.2316L53.5876 52.8927C50.2993 57.097 45.5284 59.8675 40.2641 60.6299L39.9603 47.8319C39.9543 47.5886 39.9967 47.3465 40.0851 47.12C40.1735 46.8934 40.3062 46.6869 40.4751 46.5127C40.6441 46.3385 40.8461 46.2001 41.0691 46.1056C41.2921 46.0111 41.5317 45.9625 41.7737 45.9626C42.1039 45.9665 42.4268 46.0611 42.7075 46.2361V46.2316ZM31.8728 33.7596L20.9928 27.0984C24.2817 22.8948 29.0522 20.1245 34.3163 19.3612L34.62 32.1592C34.6264 32.4027 34.5842 32.645 34.4959 32.8719C34.4076 33.0987 34.2751 33.3054 34.1061 33.4799C33.937 33.6543 33.735 33.7929 33.5118 33.8876C33.2887 33.9822 33.0489 34.0309 32.8067 34.0308C32.4768 34.0309 32.1534 33.9386 31.8728 33.7641V33.7596ZM20.9928 52.8927L31.8728 46.2316C32.1549 46.0564 32.4797 45.9633 32.8112 45.9626C33.0532 45.9625 33.2928 46.0111 33.5158 46.1056C33.7388 46.2001 33.9408 46.3385 34.1098 46.5127C34.2788 46.6869 34.4114 46.8934 34.4998 47.12C34.5882 47.3465 34.6306 47.5886 34.6246 47.8319L34.3209 60.6299C29.0588 59.8676 24.2899 57.0989 21.0019 52.8973L20.9928 52.8927Z" fill="#FFCC00"/>
</svg>
